HIERARCHY
ROOT Hips
{
	OFFSET 0.00000 0.00000 0.00000
	CHANNELS 6 Xposition Yposition Zposition Zrotation Yrotation Xrotation 
	JOINT LHipJoint
	{
		OFFSET 0 0 0
		CHANNELS 3 Zrotation Yrotation Xrotation
		JOINT LeftHip
		{
			OFFSET 1.82298 -1.58346 0.87084
			CHANNELS 3 Zrotation Yrotation Xrotation
			JOINT LeftKnee
			{
				OFFSET 2.43790 -6.69809 0.00000
				CHANNELS 3 Zrotation Yrotation Xrotation
				JOINT LeftAnkle
				{
					OFFSET 2.59288 -7.12389 0.00000
					CHANNELS 3 Zrotation Yrotation Xrotation
					JOINT LeftToe
					{
						OFFSET 0.14552 -0.39981 2.13160
						CHANNELS 3 Zrotation Yrotation Xrotation
						End Site
						{
							OFFSET 0.00000 -0.00000 1.09427
						}
					}
				}
			}
		}
	}
	JOINT RHipJoint
	{
		OFFSET 0 0 0
		CHANNELS 3 Zrotation Yrotation Xrotation
		JOINT RightHip
		{
			OFFSET -1.77229 -1.58346 0.87084
			CHANNELS 3 Zrotation Yrotation Xrotation
			JOINT RightKnee
			{
				OFFSET -2.50703 -6.88801 0.00000
				CHANNELS 3 Zrotation Yrotation Xrotation
				JOINT RightAnkle
				{
					OFFSET -2.61620 -7.18796 0.00000
					CHANNELS 3 Zrotation Yrotation Xrotation
					JOINT RightToe
					{
						OFFSET -0.15190 -0.41735 2.15974
						CHANNELS 3 Zrotation Yrotation Xrotation
						End Site
						{
							OFFSET -0.00000 -0.00000 1.10919
						}
					}
				}
			}
		}
	}
	JOINT lowerback
	{
		OFFSET 0 0 0
		CHANNELS 3 Zrotation Yrotation Xrotation
		JOINT Chest
		{
			OFFSET -0.03602 2.12423 -0.30249
			CHANNELS 3 Zrotation Yrotation Xrotation
			JOINT Chest2
			{
				OFFSET 0.02717 2.10043 0.12912
				CHANNELS 3 Zrotation Yrotation Xrotation
				JOINT lowerneck
				{
					OFFSET 0 0 0
					CHANNELS 3 Zrotation Yrotation Xrotation
					JOINT Neck
					{
						OFFSET -0.06371 1.88656 0.11602
						CHANNELS 3 Zrotation Yrotation Xrotation
						JOINT Head
						{
							OFFSET 0.08208 1.87759 -0.11505
							CHANNELS 3 Zrotation Yrotation Xrotation
							End Site
							{
								OFFSET 0.03382 1.93090 -0.05483
							}
						}
					}
				}
				JOINT LeftCollar
				{
					OFFSET 0 0 0
					CHANNELS 3 Zrotation Yrotation Xrotation
					JOINT LeftShoulder
					{
						OFFSET 3.30903 1.40357 0.20156
CHANNELS 3 Zrotation Xrotation Yrotation
						JOINT LeftElbow
						{
OFFSET 0 -5.433010 0.000000
CHANNELS 3 Zrotation Xrotation Yrotation
							JOINT LeftWrist
							{
OFFSET 0 -3.159360 0.000000
CHANNELS 3 Zrotation Xrotation Yrotation
								JOINT lhand
								{
									OFFSET 0 0 0
CHANNELS 3 Zrotation Xrotation Yrotation
									JOINT LFingers
									{
OFFSET 0 -0.712830 0.000000
CHANNELS 3 Zrotation Xrotation Yrotation
										End Site
										{
OFFSET 0 -0.574700 0.000000
										}
									}
								}
								JOINT LThumb
								{
OFFSET 0 0.000000 0.000000
CHANNELS 3 Zrotation Xrotation Yrotation
									End Site
									{
OFFSET 0 -0.583470 0.583470
									}
								}
							}
						}
					}
				}
				JOINT RightCollar
				{
					OFFSET 0 0 0
					CHANNELS 3 Zrotation Yrotation Xrotation
					JOINT RightShoulder
					{
						OFFSET -3.12947 1.60037 -0.00464
CHANNELS 3 Zrotation Xrotation Yrotation
						JOINT RightElbow
						{
OFFSET 0 -5.341940 0.000000
CHANNELS 3 Zrotation Xrotation Yrotation
							JOINT RightWrist
							{
OFFSET 0 -3.193510 0.000000
CHANNELS 3 Zrotation Xrotation Yrotation
								JOINT rhand
								{
									OFFSET 0 0 0
CHANNELS 3 Zrotation Xrotation Yrotation
									JOINT RFingers
									{
OFFSET 0 -0.743860 0.000000
CHANNELS 3 Zrotation Xrotation Yrotation
										End Site
										{
OFFSET 0 -0.599720 0.000000
										}
									}
								}
								JOINT RThumb
								{
OFFSET 0 0.000000 0.000000
CHANNELS 3 Zrotation Xrotation Yrotation
									End Site
									{
OFFSET 0 -0.608880 0.608880
									}
								}
							}
						}
					}
				}
			}
		}
	}
}
MOTION
Frames: 11
Frame Time: 0.008333333333333333
-3.706842 13.482759 42.279188 9.167672 13.185167 7.237196 0.000000 0.000000 0.000000 -15.436652 13.157248 16.856728 1.643469 8.080284 22.958145 0.941953 21.977449 -36.568325 1.746945 -8.317748 -23.683338 0.000000 0.000000 0.000000 -4.430373 -2.090269 -67.885953 -14.535339 -19.268472 73.833100 0.365953 15.263200 -6.102590 0.000000 0.018282 -0.050148 -17.288803 -5.804311 13.001498 1.524541 -10.494475 -2.719444 13.049661 -4.323371 -6.961765 -20.835018 -19.076171 12.041038 22.887219 -28.677697 0.232319 8.574299 -14.901316 4.554735 0.000000 0.000000 0.000000 6.169645 -1.928139 -32.709840 16.285518 -25.906183 3.769822 22.646078 27.149348 -21.800947 0.000000 0.000000 0.000000 -7.125000 0.000000 0.000000 -6.425170 53.298056 1.317702 0.000000 0.000000 0.000000 -21.658639 0.604515 44.021186 -19.357239 -29.859887 -5.207634 -6.704314 13.740852 43.204919 0.000000 0.000000 0.000000 7.125000 0.000000 0.000000 43.841342 68.635713 -26.692169
-3.692483 13.488327 42.286519 8.923879 13.025914 7.357278 0.000000 0.000000 0.000000 -15.282048 13.302399 16.689502 1.634540 8.059239 22.894231 0.974476 21.863251 -36.613714 1.730656 -8.281018 -23.570806 0.000000 0.000000 0.000000 -4.291816 -1.688490 -67.949686 -14.491360 -19.256361 73.699792 0.344190 14.977176 -6.108108 -0.001787 0.264179 -0.725729 -17.261403 -5.793810 12.810014 1.653908 -10.434559 -2.762126 13.148425 -4.299412 -6.899858 -20.797049 -19.135769 12.011187 22.843651 -28.762022 0.331119 8.534159 -14.937919 4.594524 0.000000 0.000000 0.000000 6.328562 -2.690380 -33.215878 16.647414 -26.390589 3.929312 23.335926 26.580431 -21.566475 0.000000 0.000000 0.000000 -7.125000 0.000000 0.000000 -5.641778 53.182684 1.138412 0.000000 0.000000 0.000000 -21.695013 0.731072 43.746456 -18.830331 -29.207246 -4.947771 -6.681692 13.824800 43.037522 0.000000 0.000000 0.000000 7.125000 0.000000 0.000000 43.548614 68.512463 -26.374951
-3.662482 13.492157 42.285400 9.182790 13.145513 7.429274 0.000000 0.000000 0.000000 -15.657750 13.221625 16.836985 1.605387 7.990576 22.685457 0.940759 21.943160 -36.524159 1.754327 -8.334471 -23.734625 0.000000 0.000000 0.000000 -4.661372 -2.005416 -67.911579 -14.488826 -19.255628 73.691971 0.357063 15.141001 -6.098327 -0.000488 0.138329 -0.380140 -17.418481 -5.866007 12.923012 1.587263 -10.585699 -2.787876 13.190022 -4.361164 -6.931354 -20.812790 -19.162491 11.972607 22.903386 -28.804422 0.346962 8.538704 -14.957162 4.626814 0.000000 0.000000 0.000000 6.455952 -3.212403 -33.377386 17.149715 -27.054624 4.155269 23.523366 25.919962 -21.487622 0.000000 0.000000 0.000000 -7.125000 0.000000 0.000000 -5.425144 53.134873 1.088157 0.000000 0.000000 0.000000 -21.686643 0.718560 43.494338 -18.509117 -28.804132 -4.792034 -6.572038 14.023374 42.885209 0.000000 0.000000 0.000000 7.125000 0.000000 0.000000 43.372484 68.371544 -26.123195
-3.644889 13.497004 42.284576 8.645798 12.943171 7.404021 0.000000 0.000000 0.000000 -15.288555 13.254776 16.541884 1.653289 8.103166 23.027809 0.946918 22.088144 -36.717252 1.766691 -8.362275 -23.819856 0.000000 0.000000 0.000000 -4.150812 -1.624838 -67.929929 -14.445117 -19.243527 73.559186 0.349449 14.977847 -6.029633 -0.001340 0.238886 -0.656213 -17.063991 -5.868163 12.856169 1.750776 -10.508436 -2.809231 13.167851 -4.332738 -6.966087 -20.762241 -19.203466 11.970785 22.856751 -28.836201 0.261913 8.516817 -14.972825 4.593005 0.000000 0.000000 0.000000 6.483806 -3.634675 -33.296492 17.487187 -27.495483 4.309820 23.790876 25.557716 -21.450716 0.000000 0.000000 0.000000 -7.125000 0.000000 0.000000 -5.139819 53.146370 1.032207 0.000000 0.000000 0.000000 -21.817278 0.660743 43.605471 -18.534287 -28.835877 -4.804189 -6.739975 14.126598 43.000612 0.000000 0.000000 0.000000 7.125000 0.000000 0.000000 43.423085 68.505436 -26.281819
-3.621578 13.496269 42.294864 8.852269 12.969472 7.365500 0.000000 0.000000 0.000000 -15.575847 13.266864 16.739981 1.645054 8.083925 22.969224 0.932774 22.140179 -36.700860 1.761798 -8.351302 -23.786314 0.000000 0.000000 0.000000 -4.420489 -1.833171 -67.848361 -14.465558 -19.249202 73.621366 0.350853 15.050830 -6.090797 -0.005240 0.462786 -1.271622 -17.339389 -5.908277 12.935280 1.697877 -10.628841 -2.835843 13.282059 -4.377224 -6.968480 -20.826819 -19.190245 11.972886 22.825481 -28.835245 0.316388 8.512544 -14.971149 4.612839 0.000000 0.000000 0.000000 6.392626 -3.978381 -33.173792 17.528880 -27.549701 4.329154 24.103875 25.566490 -21.677410 0.000000 0.000000 0.000000 -7.125000 0.000000 0.000000 -4.888260 53.445343 1.017207 0.000000 0.000000 0.000000 -21.880382 0.724124 43.418386 -18.862428 -29.247224 -4.963532 -6.377328 14.058508 42.951939 0.000000 0.000000 0.000000 7.125000 0.000000 0.000000 43.685540 68.356457 -26.324190
-3.604106 13.495868 42.300094 8.605042 12.828035 7.291434 0.000000 0.000000 0.000000 -15.400418 13.390378 16.717889 1.660907 8.120754 23.081579 0.949069 22.140092 -36.786382 1.766456 -8.361656 -23.818060 0.000000 0.000000 0.000000 -4.260620 -1.581115 -67.802954 -14.455471 -19.246404 73.590873 0.354715 14.939245 -5.905077 -0.001860 0.241228 -0.662842 -17.199758 -5.898934 12.854420 1.716097 -10.571671 -2.793385 13.203979 -4.365406 -6.911359 -20.702427 -19.276419 11.975803 22.838781 -28.923293 0.207773 8.490963 -15.016365 4.582760 0.000000 0.000000 0.000000 6.395944 -4.266602 -33.278537 17.481856 -27.488560 4.307354 24.096376 25.689810 -21.921095 0.000000 0.000000 0.000000 -7.125000 0.000000 0.000000 -4.972304 53.701484 1.066180 0.000000 0.000000 0.000000 -21.888353 0.639917 43.152829 -19.324444 -29.819595 -5.191252 -6.490941 14.282063 42.951510 0.000000 0.000000 0.000000 7.125000 0.000000 0.000000 43.574308 68.392123 -26.280774
-3.586051 13.499564 42.301036 8.624075 12.721968 7.308618 0.000000 0.000000 0.000000 -15.562493 13.405526 16.761120 1.650870 8.097449 23.010419 0.937889 22.236282 -36.834554 1.777546 -8.386462 -23.894130 0.000000 0.000000 0.000000 -4.365713 -1.404739 -67.811587 -14.383406 -19.226203 73.372027 0.351878 14.798273 -5.787850 -0.005766 0.488397 -1.341904 -17.371528 -5.967233 12.899646 1.725919 -10.702006 -2.823749 13.327179 -4.420845 -6.898402 -20.733981 -19.238057 11.890117 22.824733 -28.867727 0.238036 8.489543 -14.983483 4.595313 0.000000 0.000000 0.000000 6.288374 -4.319943 -33.195713 17.367503 -27.339729 4.254739 23.957511 25.588406 -21.844178 0.000000 0.000000 0.000000 -7.125000 0.000000 0.000000 -5.091241 53.593540 1.078111 0.000000 0.000000 0.000000 -22.052381 0.511669 43.264449 -19.881057 -30.498832 -5.470874 -6.862329 14.543772 42.685725 0.000000 0.000000 0.000000 7.125000 0.000000 0.000000 42.722488 68.323428 -25.634055
-3.574178 13.503748 42.305326 8.440077 12.617152 7.257026 0.000000 0.000000 0.000000 -15.477568 13.431216 16.720492 1.669603 8.141032 23.143284 0.929667 22.358780 -36.928071 1.764756 -8.357811 -23.806271 0.000000 0.000000 0.000000 -4.271831 -1.094586 -67.727339 -14.353859 -19.217885 73.282277 0.331367 14.581026 -5.862017 -0.010426 0.659243 -1.811603 -17.390292 -6.006121 12.859780 1.750196 -10.738812 -2.751644 13.350897 -4.457762 -6.772708 -20.666241 -19.306552 11.855953 22.880374 -28.940585 0.148417 8.483023 -15.019841 4.589000 0.000000 0.000000 0.000000 6.195148 -4.362906 -33.186249 17.213010 -27.137766 4.184057 23.842112 25.581998 -21.586262 0.000000 0.000000 0.000000 -7.125000 0.000000 0.000000 -5.129162 53.299095 1.049188 0.000000 0.000000 0.000000 -22.107474 0.089323 43.238882 -20.324380 -31.031060 -5.697677 -6.731454 14.373747 42.895033 0.000000 0.000000 0.000000 7.125000 0.000000 0.000000 43.235464 68.429022 -26.082071
-3.561920 13.498064 42.303787 8.328140 12.654028 7.206726 0.000000 0.000000 0.000000 -15.417771 13.336436 16.593122 1.718925 8.254356 23.489172 0.948374 22.405141 -37.077310 1.756210 -8.338623 -23.747568 0.000000 0.000000 0.000000 -4.292268 -1.012001 -67.503849 -14.386881 -19.227223 73.382646 0.318264 14.502539 -5.978790 -0.003631 0.388641 -1.068009 -17.416303 -6.098049 13.029452 1.783843 -10.900868 -2.798050 13.447529 -4.522101 -6.855577 -20.703889 -19.268409 11.822778 22.736008 -28.904677 0.320719 8.442926 -14.995128 4.618965 0.000000 0.000000 0.000000 5.992681 -4.193808 -33.005276 17.014071 -26.876325 4.093677 23.593041 25.641528 -21.610736 0.000000 0.000000 0.000000 -7.125000 0.000000 0.000000 -5.392488 53.277887 1.100489 0.000000 0.000000 0.000000 -22.279135 0.080488 43.316653 -20.892992 -31.703222 -5.993586 -6.985783 14.596158 42.698243 0.000000 0.000000 0.000000 7.125000 0.000000 0.000000 42.623664 68.371500 -25.610301
-3.553129 13.502502 42.306624 8.303453 12.639528 7.147265 0.000000 0.000000 0.000000 -15.455073 13.315511 16.651981 1.715158 8.245710 23.462997 0.927528 22.495370 -37.069860 1.743007 -8.308864 -23.656324 0.000000 0.000000 0.000000 -4.285774 -0.930821 -67.399647 -14.374882 -19.223810 73.346114 0.296828 14.364645 -6.159634 -0.010072 0.644969 -1.772388 -17.492898 -6.089058 13.048526 1.728387 -10.902008 -2.735718 13.422588 -4.531018 -6.794065 -20.735305 -19.292076 11.860306 22.777344 -28.956350 0.342481 8.451032 -15.023855 4.642431 0.000000 0.000000 0.000000 5.838057 -4.257495 -32.915339 16.740909 -26.514987 3.970998 23.161628 25.764945 -21.718512 0.000000 0.000000 0.000000 -7.125000 0.000000 0.000000 -5.869026 53.309561 1.202741 0.000000 0.000000 0.000000 -22.366253 -0.124272 43.363484 -21.208746 -32.071214 -6.160423 -6.953405 14.526449 42.764098 0.000000 0.000000 0.000000 7.125000 0.000000 0.000000 42.776365 68.407564 -25.747678
-3.542593 13.513455 42.306032 8.415755 12.675012 7.181026 0.000000 0.000000 0.000000 -15.601075 13.346604 16.839246 1.660866 8.120788 23.081566 0.917744 22.409826 -36.922908 1.697591 -8.205568 -23.340232 0.000000 0.000000 0.000000 -4.417163 -0.965147 -67.449585 -14.353676 -19.217815 73.281646 0.305495 14.220514 -5.866959 -0.009911 0.635752 -1.747085 -17.691987 -6.090197 13.108527 1.682884 -10.952934 -2.748884 13.494236 -4.545089 -6.802976 -20.728395 -19.268777 11.853450 22.680603 -28.921649 0.393025 8.427401 -15.004155 4.633764 0.000000 0.000000 0.000000 5.579349 -4.307076 -32.716435 16.380204 -26.033409 3.811283 23.263699 26.118894 -21.547064 0.000000 0.000000 0.000000 -7.125000 0.000000 0.000000 -5.709564 53.148734 1.147497 0.000000 0.000000 0.000000 -22.579495 -0.310686 43.630682 -21.354771 -32.240060 -6.238137 -6.828169 14.237445 42.951279 0.000000 0.000000 0.000000 7.125000 0.000000 0.000000 43.245191 68.499046 -26.153393
